<?xml version="1.0" encoding="utf-8"?>
<!-- Generator: Adobe Illustrator 26.0.3, SVG Export Plug-In . SVG Version: 6.00 Build 0)  -->
<svg version="1.1" id="Capa_2" xmlns="http://www.w3.org/2000/svg" xmlns:xlink="http://www.w3.org/1999/xlink" x="0px" y="0px"
	 viewBox="0 0 491.06 160.31" style="enable-background:new 0 0 491.06 160.31;" xml:space="preserve">
<style type="text/css">
	.st0{fill:#404B29;}
</style>
<g>
	<path class="st0" d="M35.03,38.88c0-0.39,0.33-0.72,0.72-0.72h22.1c0.39,0,0.72,0.33,0.72,0.72v0.94c0,0.39-0.33,0.72-0.72,0.72
		H37.68v15.21h17.47c0.39,0,0.72,0.33,0.72,0.72v0.94c0,0.39-0.33,0.72-0.72,0.72H37.68v16.31h20.17c0.39,0,0.72,0.33,0.72,0.72
		v0.88c0,0.39-0.33,0.72-0.72,0.72h-22.1c-0.39,0-0.72-0.33-0.72-0.72V38.88z"/>
	<path class="st0" d="M98.19,71.62l0.5-0.66c0.39-0.44,0.77-0.61,1.21-0.22c0.55,0.5,4.63,4.24,10.2,4.24
		c5.02,0,9.26-3.36,9.26-7.39c0-4.91-4.02-7.11-10.69-9.37c-6.39-2.26-10.64-4.52-10.64-10.86c0-4.13,3.31-9.76,11.9-9.76
		c5.46,0,9.48,2.81,9.48,2.81c0.22,0.17,0.61,0.55,0.22,1.16c-0.17,0.22-0.33,0.5-0.44,0.72c-0.33,0.44-0.66,0.61-1.21,0.28
		c-0.17-0.11-3.86-2.59-8.1-2.59c-6.78,0-9.31,4.19-9.31,7.33c0,4.68,3.58,6.72,9.15,8.54c7.55,2.59,12.35,5.24,12.35,11.63
		c0,5.51-5.68,9.81-12.02,9.81c-6.56,0-10.97-3.86-11.68-4.52C98.02,72.5,97.75,72.22,98.19,71.62z"/>
	<path class="st0" d="M160.62,71.62l0.5-0.66c0.39-0.44,0.77-0.61,1.21-0.22c0.55,0.5,4.63,4.24,10.2,4.24
		c5.02,0,9.26-3.36,9.26-7.39c0-4.91-4.02-7.11-10.69-9.37c-6.39-2.26-10.64-4.52-10.64-10.86c0-4.13,3.31-9.76,11.9-9.76
		c5.46,0,9.48,2.81,9.48,2.81c0.22,0.17,0.61,0.55,0.22,1.16c-0.17,0.22-0.33,0.5-0.44,0.72c-0.33,0.44-0.66,0.61-1.21,0.28
		c-0.17-0.11-3.86-2.59-8.1-2.59c-6.78,0-9.31,4.19-9.31,7.33c0,4.68,3.58,6.72,9.15,8.54c7.55,2.59,12.35,5.24,12.35,11.63
		c0,5.51-5.68,9.81-12.02,9.81c-6.56,0-10.97-3.86-11.68-4.52C160.46,72.5,160.18,72.22,160.62,71.62z"/>
	<path class="st0" d="M225.38,38.88c0-0.39,0.33-0.72,0.72-0.72h22.1c0.39,0,0.72,0.33,0.72,0.72v0.94c0,0.39-0.33,0.72-0.72,0.72
		h-20.17v15.21h17.47c0.39,0,0.72,0.33,0.72,0.72v0.94c0,0.39-0.33,0.72-0.72,0.72h-17.47v16.31h20.17c0.39,0,0.72,0.33,0.72,0.72
		v0.88c0,0.39-0.33,0.72-0.72,0.72h-22.1c-0.39,0-0.72-0.33-0.72-0.72V38.88z"/>
	<path class="st0" d="M290.84,38.33c0-0.44,0.39-0.72,0.83-0.72h0.94l26.46,34.45c0.06,0,0.06,0,0.06,0V38.88
		c0-0.39,0.33-0.72,0.72-0.72h1.1c0.39,0,0.72,0.33,0.72,0.72v37.7c0,0.5-0.44,0.72-0.88,0.72h-0.72c-0.05,0-0.5-0.17-26.68-34.78
		h-0.05v33.51c0,0.39-0.33,0.72-0.72,0.72h-1.05c-0.39,0-0.72-0.33-0.72-0.72V38.33z"/>
	<path class="st0" d="M361.66,75.09l22.38-34.39v-0.11h-19.95c-0.39,0-0.72-0.33-0.72-0.83v-0.88c0-0.39,0.33-0.72,0.72-0.72h22.71
		c0.44,0,0.72,0.33,0.72,0.72v0.88l-22.43,34.5v0.06h20.56c0.44,0,0.72,0.33,0.72,0.72v0.99c0,0.39-0.28,0.72-0.72,0.72h-23.2
		c-0.44,0-0.77-0.28-0.77-0.66V75.09z"/>
	<path class="st0" d="M422.22,76.08l16.97-38.36c0.11-0.22,0.39-0.39,0.66-0.39h0.17c0.28,0,0.55,0.06,0.72,0.39l16.81,38.36
		c0.11,0.33,0.11,0.66-0.5,0.66h-1.43c-0.39,0-0.66-0.28-0.77-0.5l-4.46-10.14h-21.05l-4.41,10.14c-0.11,0.22-0.39,0.5-0.77,0.5
		h-1.54C422.22,76.74,422.06,76.52,422.22,76.08z M449.45,63.95l-9.42-22.21h-0.11l-9.59,22.21H449.45z"/>
</g>
<g>
	<path class="st0" d="M119.77,128.19l-4.58-7.87h-3.04v7.87h-2.51v-19.24h6.21c1.45,0,2.68,0.25,3.68,0.75
		c1,0.5,1.75,1.17,2.25,2.01c0.5,0.85,0.75,1.81,0.75,2.9c0,1.32-0.38,2.49-1.15,3.51c-0.76,1.01-1.91,1.68-3.44,2.02l4.83,8.06
		H119.77z M112.15,118.31h3.7c1.36,0,2.38-0.34,3.06-1.01c0.68-0.67,1.02-1.57,1.02-2.69c0-1.14-0.34-2.02-1.01-2.65
		c-0.67-0.63-1.7-0.94-3.08-0.94h-3.7V118.31z"/>
	<path class="st0" d="M139.97,111v6.43h7.01v2.07h-7.01v6.62h7.84v2.07h-10.35v-19.27h10.35V111H139.97z"/>
	<path class="st0" d="M165.35,127.71c-1-0.45-1.79-1.08-2.36-1.88c-0.57-0.8-0.87-1.73-0.88-2.77h2.68c0.09,0.9,0.46,1.66,1.12,2.28
		c0.65,0.62,1.6,0.92,2.86,0.92c1.2,0,2.14-0.3,2.83-0.9c0.69-0.6,1.04-1.37,1.04-2.3c0-0.74-0.2-1.33-0.61-1.79
		c-0.4-0.46-0.91-0.81-1.52-1.05c-0.61-0.24-1.43-0.5-2.46-0.77c-1.27-0.33-2.29-0.66-3.05-0.99c-0.76-0.33-1.42-0.85-1.96-1.56
		c-0.54-0.71-0.81-1.66-0.81-2.86c0-1.05,0.27-1.98,0.8-2.79c0.53-0.81,1.28-1.44,2.25-1.88c0.97-0.44,2.07-0.66,3.33-0.66
		c1.8,0,3.28,0.45,4.43,1.35c1.15,0.9,1.8,2.1,1.95,3.59h-2.76c-0.09-0.74-0.48-1.38-1.16-1.95c-0.68-0.56-1.58-0.84-2.7-0.84
		c-1.05,0-1.9,0.27-2.57,0.81c-0.66,0.54-0.99,1.3-0.99,2.28c0,0.7,0.2,1.27,0.59,1.71c0.4,0.44,0.88,0.78,1.46,1.01
		c0.58,0.23,1.39,0.49,2.44,0.79c1.27,0.35,2.29,0.69,3.06,1.04c0.77,0.34,1.44,0.87,1.99,1.57c0.55,0.71,0.83,1.67,0.83,2.88
		c0,0.94-0.25,1.82-0.75,2.65c-0.5,0.83-1.23,1.5-2.21,2.02c-0.98,0.52-2.13,0.77-3.45,0.77
		C167.49,128.39,166.35,128.16,165.35,127.71z"/>
	<path class="st0" d="M192.41,108.96v19.24h-2.51v-19.24H192.41z"/>
	<path class="st0" d="M219.17,110.13c1.54,0.78,2.71,1.9,3.53,3.35c0.82,1.45,1.23,3.17,1.23,5.13c0,1.97-0.41,3.68-1.23,5.12
		c-0.82,1.44-2,2.55-3.53,3.31c-1.54,0.76-3.35,1.15-5.45,1.15h-5.99v-19.24h5.99C215.82,108.96,217.64,109.35,219.17,110.13z
		 M219.41,124.15c1.31-1.32,1.96-3.16,1.96-5.53c0-2.39-0.66-4.26-1.97-5.6c-1.32-1.34-3.21-2.01-5.67-2.01h-3.48v15.13h3.48
		C216.21,126.12,218.1,125.47,219.41,124.15z"/>
	<path class="st0" d="M240.8,111v6.43h7.01v2.07h-7.01v6.62h7.84v2.07h-10.35v-19.27h10.35V111H240.8z"/>
	<path class="st0" d="M278.61,128.19h-2.51L266,112.88v15.32h-2.51v-19.27H266l10.1,15.29v-15.29h2.51V128.19z"/>
	<path class="st0" d="M294.26,113.5c0.85-1.5,2-2.67,3.46-3.52c1.46-0.85,3.09-1.27,4.87-1.27c2.1,0,3.93,0.51,5.49,1.52
		c1.56,1.01,2.71,2.45,3.42,4.31h-3.01c-0.53-1.16-1.3-2.05-2.3-2.68c-1-0.63-2.2-0.94-3.6-0.94c-1.34,0-2.55,0.31-3.62,0.94
		c-1.07,0.63-1.9,1.51-2.51,2.66c-0.61,1.15-0.91,2.5-0.91,4.04c0,1.53,0.3,2.87,0.91,4.02c0.61,1.15,1.45,2.04,2.51,2.66
		c1.07,0.63,2.27,0.94,3.62,0.94c1.4,0,2.6-0.31,3.6-0.92c1-0.62,1.77-1.5,2.3-2.66h3.01c-0.72,1.84-1.86,3.26-3.42,4.26
		c-1.56,1-3.39,1.5-5.49,1.5c-1.79,0-3.41-0.42-4.87-1.26c-1.46-0.84-2.62-2-3.46-3.49c-0.85-1.49-1.27-3.17-1.27-5.05
		C292.99,116.68,293.42,115,294.26,113.5z"/>
	<path class="st0" d="M328.79,108.96v19.24h-2.51v-19.24H328.79z"/>
	<path class="st0" d="M355.48,123.92h-8.39l-1.55,4.28h-2.65l6.96-19.13h2.9l6.93,19.13h-2.65L355.48,123.92z M354.77,121.87
		l-3.48-9.72l-3.48,9.72H354.77z"/>
	<path class="st0" d="M376.27,126.15H383v2.04h-9.25v-19.24h2.51V126.15z"/>
</g>
</svg>
