<?xml version="1.0" encoding="utf-8"?>
<!-- Generator: Adobe Illustrator 26.0.3, SVG Export Plug-In . SVG Version: 6.00 Build 0)  -->
<svg version="1.1" id="Layer_1" xmlns="http://www.w3.org/2000/svg" xmlns:xlink="http://www.w3.org/1999/xlink" x="0px" y="0px"
	 viewBox="0 0 512 512" style="enable-background:new 0 0 512 512;" xml:space="preserve">
<style type="text/css">
	.st0{fill:#FEFEE7;}
</style>
<path class="st0" d="M464.88,64.27H47.12C21.14,64.27,0,85.4,0,111.42c0,25.98,21.14,47.12,47.12,47.12h417.77
	c25.98,0,47.12-21.14,47.12-47.12C512,85.4,490.86,64.27,464.88,64.27z"/>
<path class="st0" d="M464.88,208.87H47.12C21.14,208.87,0,230,0,256.02c0,25.98,21.14,47.12,47.12,47.12h417.77
	c25.98,0,47.12-21.14,47.12-47.12C512,230,490.86,208.87,464.88,208.87L464.88,208.87z"/>
<path class="st0" d="M464.88,353.47H47.12C21.14,353.47,0,374.6,0,400.62c0,25.98,21.14,47.12,47.12,47.12h417.77
	c25.98,0,47.12-21.14,47.12-47.12C512,374.6,490.86,353.47,464.88,353.47z"/>
</svg>
